<mxfile host="app.diagrams.net" modified="2024-04-21T16:17:58.024Z" agent="Mozilla/5.0 (Macintosh; Intel Mac OS X 10_15_7) AppleWebKit/537.36 (KHTML, like Gecko) Chrome/124.0.0.0 Safari/537.36" version="23.1.8" etag="5wfr3_0QR0zYFkUfkzHd" type="github">
  <diagram name="Page-1" id="SejFXGJ5MVSR9lhAAJZa">
    <mxGraphModel>
      <root>
        <mxCell id="0" />
        <mxCell id="1" parent="0" />
      </root>
    </mxGraphModel>
  </diagram>
</mxfile>
